<svg width="1454" height="715" viewBox="0 0 1454 715" fill="none" xmlns="http://www.w3.org/2000/svg">
<g filter="url(#filter0_d_870_36)">
<path fill-rule="evenodd" clip-rule="evenodd" d="M390.778 55.1523H33.0002V108.156H33.0013V232.717H33V285.721H33.0013V349.324H93.956V285.721H390.777V232.717H93.956V108.156H390.778V55.1523ZM33 412.929H390.777V465.933H33V412.929Z" fill="white"/>
<rect x="952.628" y="55.1533" width="410.782" height="60.9547" transform="rotate(90 952.628 55.1533)" fill="white"/>
<path d="M1402.06 325.252C1418.29 331.606 1426.01 350.415 1416.56 365.057C1394.42 399.356 1362.68 427.702 1324.44 446.91C1276.19 471.149 1220.48 479.387 1166.51 470.265C1112.53 461.143 1063.52 435.207 1027.56 396.737C991.601 358.266 970.84 309.561 968.705 258.658C966.57 207.755 983.189 157.698 1015.82 116.747C1048.45 75.7953 1095.14 46.3979 1148.18 33.4057C1201.23 20.4136 1257.46 24.6033 1307.6 45.2833C1347.35 61.6814 1381.39 87.6709 1406.33 120.295C1416.92 134.145 1410.69 153.522 1394.97 161.063V161.063C1380.53 167.986 1363.41 162.256 1353.35 149.808C1335.05 127.182 1310.76 109.119 1282.61 97.51C1245.27 82.1073 1203.39 78.9868 1163.88 88.6635C1124.37 98.3401 1089.59 120.236 1065.29 150.737C1040.99 181.238 1028.61 218.521 1030.2 256.434C1031.79 294.347 1047.26 330.623 1074.04 359.276C1100.82 387.93 1137.33 407.247 1177.53 414.041C1217.73 420.835 1259.22 414.699 1295.16 396.646C1322.09 383.116 1344.7 363.499 1361.02 339.802C1370.19 326.487 1387 319.359 1402.06 325.252V325.252Z" fill="white"/>
<path fill-rule="evenodd" clip-rule="evenodd" d="M425.222 314.871H425.221V675.299H480.875V422.506C502.346 438.996 526.874 452.017 553.464 460.836C603.39 477.395 657.801 478.216 708.281 463.173C758.76 448.13 802.495 418.061 832.72 377.616C862.945 337.172 877.976 288.606 875.488 239.432C873 190.258 853.131 143.215 818.955 105.58C784.779 67.9456 738.201 41.8166 686.425 31.2349C634.648 20.6531 580.56 26.2084 532.526 47.0413C494.779 63.4122 462.425 88.5004 438.412 119.682C427.775 133.495 433.948 152.894 449.643 160.486C464.046 167.452 481.184 161.783 491.283 149.374C508.849 127.793 531.903 110.385 558.57 98.8194C594.346 83.3028 634.632 79.1652 673.196 87.0466C711.759 94.928 746.451 114.389 771.906 142.42C797.361 170.45 812.159 205.489 814.012 242.114C815.866 278.74 804.67 314.912 782.158 345.035C759.646 375.159 727.072 397.555 689.474 408.759C651.877 419.963 611.351 419.351 574.165 407.018C546.838 397.954 522.434 382.932 502.903 363.385C497.493 357.242 491.332 349.213 486.177 340.048C476.636 323.087 441.565 316.197 425.222 314.871Z" fill="white"/>
<path fill-rule="evenodd" clip-rule="evenodd" d="M696.504 254.819C699.3 248.461 700.852 241.432 700.852 234.04C700.852 233.202 700.832 232.368 700.792 231.539C700.832 230.601 700.852 229.668 700.852 228.741C700.852 224.281 699.922 220.646 698.225 217.73C691.395 197.181 672.015 182.361 649.173 182.361C622.464 182.361 600.487 202.623 597.775 228.614C597.681 228.656 597.587 228.699 597.494 228.741C597.529 229.27 597.571 229.819 597.621 230.389C597.536 231.595 597.494 232.813 597.494 234.04C597.494 242.205 599.387 249.927 602.759 256.792C609.352 279.96 623.016 310.007 649.173 334.749C662.98 319.562 686.767 286.679 696.504 254.819Z" fill="white"/>
<path d="M539.906 553.074V559.629H507.716V553.074H539.906ZM509.345 498.841V559.629H501.287V498.841H509.345ZM535.647 524.976V531.531H507.716V524.976H535.647ZM539.488 498.841V505.437H507.716V498.841H539.488ZM561.365 552.657L573.723 514.455H581.614L565.373 559.629H560.196L561.365 552.657ZM551.053 514.455L563.787 552.865L564.664 559.629H559.487L543.121 514.455H551.053ZM607.207 560.464C604.062 560.464 601.209 559.935 598.648 558.877C596.116 557.792 593.931 556.275 592.094 554.327C590.284 552.378 588.893 550.068 587.919 547.396C586.944 544.724 586.457 541.802 586.457 538.629V536.875C586.457 533.201 587 529.931 588.086 527.064C589.171 524.169 590.646 521.72 592.511 519.716C594.376 517.712 596.491 516.195 598.857 515.165C601.223 514.135 603.672 513.62 606.205 513.62C609.434 513.62 612.217 514.177 614.555 515.29C616.921 516.403 618.856 517.962 620.359 519.966C621.862 521.942 622.975 524.28 623.699 526.98C624.422 529.652 624.784 532.575 624.784 535.748V539.213H591.05V532.909H617.06V532.324C616.949 530.32 616.531 528.372 615.808 526.479C615.112 524.587 613.999 523.028 612.468 521.803C610.937 520.578 608.849 519.966 606.205 519.966C604.452 519.966 602.837 520.342 601.362 521.093C599.887 521.817 598.621 522.903 597.563 524.35C596.505 525.797 595.684 527.565 595.1 529.652C594.515 531.74 594.223 534.147 594.223 536.875V538.629C594.223 540.772 594.515 542.79 595.1 544.682C595.712 546.547 596.589 548.189 597.73 549.609C598.899 551.028 600.304 552.142 601.947 552.949C603.617 553.756 605.509 554.16 607.625 554.16C610.352 554.16 612.663 553.603 614.555 552.49C616.448 551.376 618.104 549.887 619.524 548.022L624.2 551.738C623.225 553.213 621.987 554.619 620.484 555.955C618.981 557.291 617.13 558.376 614.931 559.211C612.76 560.046 610.185 560.464 607.207 560.464ZM641.526 521.553V559.629H633.802V514.455H641.317L641.526 521.553ZM655.637 514.205L655.596 521.386C654.956 521.246 654.343 521.163 653.759 521.135C653.202 521.079 652.562 521.052 651.838 521.052C650.057 521.052 648.484 521.33 647.12 521.887C645.757 522.443 644.602 523.223 643.655 524.225C642.709 525.227 641.957 526.424 641.401 527.815C640.872 529.179 640.524 530.682 640.357 532.324L638.186 533.577C638.186 530.849 638.45 528.288 638.979 525.895C639.536 523.501 640.385 521.386 641.526 519.549C642.667 517.684 644.114 516.236 645.868 515.207C647.649 514.149 649.765 513.62 652.214 513.62C652.771 513.62 653.411 513.69 654.134 513.829C654.858 513.94 655.359 514.065 655.637 514.205ZM676.22 554.953L688.787 514.455H697.054L678.934 566.601C678.517 567.715 677.96 568.911 677.264 570.192C676.596 571.5 675.733 572.738 674.676 573.907C673.618 575.077 672.338 576.023 670.835 576.747C669.359 577.498 667.592 577.874 665.532 577.874C664.92 577.874 664.141 577.79 663.194 577.623C662.248 577.456 661.58 577.317 661.19 577.206L661.149 570.943C661.371 570.971 661.719 570.999 662.192 571.027C662.693 571.082 663.041 571.11 663.236 571.11C664.99 571.11 666.479 570.874 667.703 570.4C668.928 569.955 669.958 569.19 670.793 568.104C671.656 567.047 672.393 565.585 673.006 563.72L676.22 554.953ZM666.994 514.455L678.725 549.525L680.729 557.667L675.177 560.506L658.56 514.455H666.994ZM748.824 535.79H732.583V529.235H748.824C751.969 529.235 754.516 528.734 756.464 527.732C758.413 526.73 759.832 525.338 760.723 523.557C761.641 521.775 762.101 519.743 762.101 517.461C762.101 515.374 761.641 513.411 760.723 511.574C759.832 509.737 758.413 508.262 756.464 507.149C754.516 506.008 751.969 505.437 748.824 505.437H734.462V559.629H726.404V498.841H748.824C753.417 498.841 757.299 499.634 760.472 501.22C763.645 502.807 766.053 505.006 767.695 507.817C769.337 510.6 770.158 513.787 770.158 517.378C770.158 521.274 769.337 524.6 767.695 527.356C766.053 530.111 763.645 532.213 760.472 533.66C757.299 535.08 753.417 535.79 748.824 535.79ZM786.9 521.553V559.629H779.177V514.455H786.692L786.9 521.553ZM801.012 514.205L800.97 521.386C800.33 521.246 799.718 521.163 799.133 521.135C798.576 521.079 797.936 521.052 797.213 521.052C795.431 521.052 793.859 521.33 792.495 521.887C791.131 522.443 789.976 523.223 789.03 524.225C788.083 525.227 787.332 526.424 786.775 527.815C786.246 529.179 785.898 530.682 785.731 532.324L783.56 533.577C783.56 530.849 783.825 528.288 784.354 525.895C784.91 523.501 785.759 521.386 786.9 519.549C788.041 517.684 789.489 516.236 791.242 515.207C793.024 514.149 795.139 513.62 797.588 513.62C798.145 513.62 798.785 513.69 799.509 513.829C800.233 513.94 800.734 514.065 801.012 514.205ZM805.27 537.543V536.583C805.27 533.326 805.744 530.306 806.69 527.523C807.636 524.712 809 522.276 810.781 520.217C812.563 518.129 814.72 516.515 817.253 515.374C819.786 514.205 822.625 513.62 825.77 513.62C828.943 513.62 831.796 514.205 834.329 515.374C836.889 516.515 839.06 518.129 840.842 520.217C842.651 522.276 844.029 524.712 844.975 527.523C845.921 530.306 846.394 533.326 846.394 536.583V537.543C846.394 540.8 845.921 543.819 844.975 546.603C844.029 549.386 842.651 551.822 840.842 553.909C839.06 555.969 836.903 557.583 834.37 558.752C831.865 559.893 829.026 560.464 825.853 560.464C822.68 560.464 819.827 559.893 817.295 558.752C814.762 557.583 812.591 555.969 810.781 553.909C809 551.822 807.636 549.386 806.69 546.603C805.744 543.819 805.27 540.8 805.27 537.543ZM812.994 536.583V537.543C812.994 539.798 813.259 541.927 813.787 543.931C814.316 545.907 815.11 547.66 816.167 549.191C817.253 550.722 818.603 551.933 820.217 552.824C821.831 553.686 823.71 554.118 825.853 554.118C827.969 554.118 829.82 553.686 831.406 552.824C833.02 551.933 834.356 550.722 835.414 549.191C836.472 547.66 837.265 545.907 837.794 543.931C838.351 541.927 838.629 539.798 838.629 537.543V536.583C838.629 534.356 838.351 532.255 837.794 530.278C837.265 528.274 836.458 526.507 835.372 524.976C834.315 523.418 832.979 522.193 831.364 521.302C829.778 520.411 827.913 519.966 825.77 519.966C823.654 519.966 821.79 520.411 820.175 521.302C818.589 522.193 817.253 523.418 816.167 524.976C815.11 526.507 814.316 528.274 813.787 530.278C813.259 532.255 812.994 534.356 812.994 536.583ZM884.554 550.861V495.5H892.32V559.629H885.222L884.554 550.861ZM854.16 537.543V536.666C854.16 533.215 854.578 530.084 855.413 527.272C856.275 524.433 857.486 521.998 859.045 519.966C860.631 517.934 862.51 516.376 864.681 515.29C866.88 514.177 869.329 513.62 872.029 513.62C874.868 513.62 877.345 514.121 879.461 515.123C881.604 516.097 883.413 517.531 884.888 519.423C886.391 521.288 887.574 523.543 888.437 526.187C889.3 528.831 889.898 531.823 890.232 535.163V539.004C889.926 542.316 889.328 545.295 888.437 547.939C887.574 550.583 886.391 552.838 884.888 554.702C883.413 556.567 881.604 558.001 879.461 559.003C877.317 559.977 874.812 560.464 871.946 560.464C869.301 560.464 866.88 559.893 864.681 558.752C862.51 557.611 860.631 556.011 859.045 553.951C857.486 551.891 856.275 549.47 855.413 546.686C854.578 543.875 854.16 540.827 854.16 537.543ZM861.926 536.666V537.543C861.926 539.798 862.148 541.913 862.594 543.889C863.067 545.865 863.79 547.605 864.765 549.108C865.739 550.611 866.977 551.794 868.48 552.657C869.983 553.492 871.779 553.909 873.866 553.909C876.427 553.909 878.528 553.366 880.17 552.281C881.84 551.195 883.176 549.762 884.178 547.981C885.18 546.199 885.96 544.265 886.516 542.177V532.115C886.182 530.585 885.695 529.109 885.055 527.69C884.443 526.243 883.636 524.962 882.634 523.849C881.66 522.708 880.449 521.803 879.001 521.135C877.582 520.467 875.898 520.133 873.95 520.133C871.834 520.133 870.011 520.578 868.48 521.469C866.977 522.332 865.739 523.529 864.765 525.06C863.79 526.563 863.067 528.316 862.594 530.32C862.148 532.296 861.926 534.412 861.926 536.666ZM931.982 549.191V514.455H939.748V559.629H932.358L931.982 549.191ZM933.444 539.672L936.659 539.589C936.659 542.595 936.338 545.378 935.698 547.939C935.086 550.472 934.084 552.671 932.692 554.535C931.301 556.4 929.477 557.861 927.223 558.919C924.968 559.949 922.227 560.464 918.998 560.464C916.799 560.464 914.781 560.144 912.944 559.504C911.135 558.863 909.577 557.875 908.268 556.539C906.96 555.203 905.944 553.464 905.221 551.321C904.525 549.177 904.177 546.603 904.177 543.597V514.455H911.901V543.68C911.901 545.712 912.123 547.396 912.569 548.732C913.042 550.04 913.668 551.084 914.447 551.863C915.255 552.615 916.145 553.144 917.119 553.45C918.121 553.756 919.151 553.909 920.209 553.909C923.493 553.909 926.096 553.283 928.016 552.03C929.937 550.75 931.314 549.038 932.149 546.895C933.012 544.724 933.444 542.316 933.444 539.672ZM969.6 554.118C971.437 554.118 973.134 553.742 974.693 552.991C976.252 552.239 977.532 551.209 978.534 549.901C979.536 548.565 980.107 547.048 980.246 545.35H987.594C987.455 548.022 986.55 550.513 984.88 552.824C983.238 555.106 981.081 556.957 978.409 558.376C975.737 559.768 972.8 560.464 969.6 560.464C966.204 560.464 963.24 559.865 960.707 558.669C958.202 557.472 956.114 555.83 954.444 553.742C952.802 551.655 951.563 549.261 950.728 546.561C949.921 543.833 949.518 540.953 949.518 537.919V536.165C949.518 533.131 949.921 530.265 950.728 527.565C951.563 524.837 952.802 522.429 954.444 520.342C956.114 518.254 958.202 516.612 960.707 515.415C963.24 514.219 966.204 513.62 969.6 513.62C973.134 513.62 976.224 514.344 978.868 515.791C981.512 517.211 983.586 519.159 985.089 521.636C986.62 524.086 987.455 526.869 987.594 529.986H980.246C980.107 528.121 979.578 526.437 978.659 524.934C977.769 523.431 976.544 522.235 974.985 521.344C973.454 520.425 971.659 519.966 969.6 519.966C967.234 519.966 965.244 520.439 963.629 521.386C962.043 522.304 960.776 523.557 959.83 525.143C958.911 526.702 958.243 528.441 957.826 530.362C957.436 532.255 957.241 534.189 957.241 536.165V537.919C957.241 539.895 957.436 541.843 957.826 543.764C958.216 545.684 958.87 547.424 959.788 548.983C960.735 550.541 962.001 551.794 963.587 552.74C965.202 553.659 967.206 554.118 969.6 554.118ZM1015.19 514.455V520.384H990.767V514.455H1015.19ZM999.033 503.475H1006.76V548.44C1006.76 549.971 1006.99 551.126 1007.47 551.905C1007.94 552.684 1008.55 553.199 1009.3 553.45C1010.06 553.7 1010.86 553.826 1011.73 553.826C1012.37 553.826 1013.03 553.77 1013.73 553.659C1014.45 553.519 1015 553.408 1015.36 553.325L1015.4 559.629C1014.79 559.824 1013.98 560.005 1012.98 560.172C1012 560.366 1010.82 560.464 1009.43 560.464C1007.54 560.464 1005.8 560.088 1004.21 559.337C1002.62 558.585 1001.36 557.333 1000.41 555.579C999.493 553.798 999.033 551.404 999.033 548.398V503.475ZM1053.85 514.455V559.629H1046.09V514.455H1053.85ZM1045.5 502.473C1045.5 501.22 1045.88 500.163 1046.63 499.3C1047.41 498.437 1048.55 498.006 1050.05 498.006C1051.53 498.006 1052.65 498.437 1053.43 499.3C1054.24 500.163 1054.64 501.22 1054.64 502.473C1054.64 503.67 1054.24 504.699 1053.43 505.562C1052.65 506.397 1051.53 506.815 1050.05 506.815C1048.55 506.815 1047.41 506.397 1046.63 505.562C1045.88 504.699 1045.5 503.67 1045.5 502.473ZM1073.98 524.099V559.629H1066.25V514.455H1073.56L1073.98 524.099ZM1072.14 535.33L1068.92 535.205C1068.95 532.115 1069.41 529.263 1070.3 526.646C1071.19 524.002 1072.44 521.706 1074.06 519.757C1075.67 517.809 1077.59 516.306 1079.82 515.248C1082.07 514.163 1084.57 513.62 1087.29 513.62C1089.52 513.62 1091.52 513.926 1093.31 514.539C1095.09 515.123 1096.6 516.069 1097.86 517.378C1099.14 518.686 1100.11 520.384 1100.78 522.471C1101.45 524.531 1101.78 527.05 1101.78 530.028V559.629H1094.02V529.944C1094.02 527.579 1093.67 525.686 1092.97 524.266C1092.28 522.819 1091.26 521.775 1089.92 521.135C1088.59 520.467 1086.95 520.133 1085 520.133C1083.08 520.133 1081.32 520.537 1079.74 521.344C1078.18 522.151 1076.83 523.264 1075.69 524.684C1074.57 526.103 1073.7 527.732 1073.06 529.569C1072.44 531.378 1072.14 533.298 1072.14 535.33ZM1161.36 551.905V528.65C1161.36 526.869 1161 525.324 1160.27 524.016C1159.58 522.68 1158.52 521.65 1157.1 520.926C1155.68 520.203 1153.93 519.841 1151.84 519.841C1149.89 519.841 1148.18 520.175 1146.7 520.843C1145.26 521.511 1144.12 522.388 1143.28 523.473C1142.47 524.559 1142.07 525.728 1142.07 526.98H1134.35C1134.35 525.366 1134.76 523.765 1135.6 522.179C1136.43 520.592 1137.63 519.159 1139.19 517.879C1140.78 516.57 1142.67 515.541 1144.87 514.789C1147.09 514.01 1149.57 513.62 1152.3 513.62C1155.58 513.62 1158.48 514.177 1160.98 515.29C1163.52 516.403 1165.49 518.087 1166.91 520.342C1168.36 522.569 1169.08 525.366 1169.08 528.734V549.776C1169.08 551.279 1169.21 552.879 1169.46 554.577C1169.74 556.275 1170.14 557.736 1170.67 558.961V559.629H1162.61C1162.22 558.738 1161.92 557.555 1161.69 556.08C1161.47 554.577 1161.36 553.185 1161.36 551.905ZM1162.69 532.241L1162.78 537.668H1154.97C1152.77 537.668 1150.81 537.849 1149.08 538.211C1147.36 538.545 1145.91 539.06 1144.74 539.756C1143.57 540.452 1142.68 541.328 1142.07 542.386C1141.46 543.416 1141.15 544.627 1141.15 546.018C1141.15 547.438 1141.47 548.732 1142.11 549.901C1142.75 551.07 1143.71 552.003 1144.99 552.698C1146.3 553.366 1147.9 553.7 1149.79 553.7C1152.16 553.7 1154.25 553.199 1156.06 552.197C1157.87 551.195 1159.3 549.971 1160.36 548.523C1161.44 547.076 1162.03 545.67 1162.11 544.307L1165.41 548.022C1165.21 549.191 1164.68 550.486 1163.82 551.905C1162.96 553.325 1161.8 554.688 1160.36 555.997C1158.94 557.277 1157.24 558.349 1155.26 559.211C1153.31 560.046 1151.12 560.464 1148.67 560.464C1145.6 560.464 1142.92 559.865 1140.61 558.669C1138.33 557.472 1136.54 555.871 1135.26 553.867C1134.01 551.836 1133.39 549.567 1133.39 547.062C1133.39 544.641 1133.86 542.511 1134.81 540.674C1135.75 538.809 1137.12 537.265 1138.9 536.04C1140.68 534.787 1142.82 533.841 1145.33 533.201C1147.83 532.561 1150.63 532.241 1153.72 532.241H1162.69ZM1240.31 540.299H1248.32C1247.91 544.14 1246.81 547.577 1245.03 550.611C1243.24 553.645 1240.73 556.052 1237.47 557.834C1234.21 559.587 1230.15 560.464 1225.28 560.464C1221.72 560.464 1218.47 559.796 1215.55 558.46C1212.66 557.124 1210.16 555.231 1208.08 552.782C1205.99 550.305 1204.38 547.34 1203.23 543.889C1202.12 540.41 1201.56 536.541 1201.56 532.282V526.229C1201.56 521.97 1202.12 518.115 1203.23 514.664C1204.38 511.185 1206 508.206 1208.12 505.729C1210.26 503.252 1212.84 501.346 1215.84 500.01C1218.85 498.674 1222.23 498.006 1225.99 498.006C1230.58 498.006 1234.46 498.868 1237.64 500.594C1240.81 502.32 1243.27 504.713 1245.03 507.775C1246.81 510.809 1247.91 514.33 1248.32 518.338H1240.31C1239.92 515.499 1239.19 513.063 1238.14 511.032C1237.08 508.972 1235.58 507.385 1233.63 506.272C1231.68 505.159 1229.13 504.602 1225.99 504.602C1223.29 504.602 1220.91 505.117 1218.85 506.147C1216.82 507.177 1215.1 508.638 1213.71 510.531C1212.35 512.423 1211.32 514.692 1210.62 517.336C1209.93 519.98 1209.58 522.917 1209.58 526.145V532.282C1209.58 535.261 1209.89 538.058 1210.5 540.674C1211.14 543.291 1212.1 545.587 1213.38 547.563C1214.66 549.539 1216.29 551.098 1218.26 552.239C1220.24 553.352 1222.58 553.909 1225.28 553.909C1228.7 553.909 1231.43 553.366 1233.46 552.281C1235.49 551.195 1237.02 549.637 1238.05 547.605C1239.11 545.573 1239.86 543.138 1240.31 540.299ZM1266.53 495.5V559.629H1258.76V495.5H1266.53ZM1287.32 514.455V559.629H1279.55V514.455H1287.32ZM1278.97 502.473C1278.97 501.22 1279.34 500.163 1280.1 499.3C1280.88 498.437 1282.02 498.006 1283.52 498.006C1284.99 498.006 1286.12 498.437 1286.9 499.3C1287.71 500.163 1288.11 501.22 1288.11 502.473C1288.11 503.67 1287.71 504.699 1286.9 505.562C1286.12 506.397 1284.99 506.815 1283.52 506.815C1282.02 506.815 1280.88 506.397 1280.1 505.562C1279.34 504.699 1278.97 503.67 1278.97 502.473ZM1317.8 554.118C1319.63 554.118 1321.33 553.742 1322.89 552.991C1324.45 552.239 1325.73 551.209 1326.73 549.901C1327.73 548.565 1328.3 547.048 1328.44 545.35H1335.79C1335.65 548.022 1334.75 550.513 1333.08 552.824C1331.44 555.106 1329.28 556.957 1326.61 558.376C1323.93 559.768 1321 560.464 1317.8 560.464C1314.4 560.464 1311.44 559.865 1308.9 558.669C1306.4 557.472 1304.31 555.83 1302.64 553.742C1301 551.655 1299.76 549.261 1298.93 546.561C1298.12 543.833 1297.71 540.953 1297.71 537.919V536.165C1297.71 533.131 1298.12 530.265 1298.93 527.565C1299.76 524.837 1301 522.429 1302.64 520.342C1304.31 518.254 1306.4 516.612 1308.9 515.415C1311.44 514.219 1314.4 513.62 1317.8 513.62C1321.33 513.62 1324.42 514.344 1327.07 515.791C1329.71 517.211 1331.78 519.159 1333.29 521.636C1334.82 524.086 1335.65 526.869 1335.79 529.986H1328.44C1328.3 528.121 1327.78 526.437 1326.86 524.934C1325.97 523.431 1324.74 522.235 1323.18 521.344C1321.65 520.425 1319.86 519.966 1317.8 519.966C1315.43 519.966 1313.44 520.439 1311.83 521.386C1310.24 522.304 1308.97 523.557 1308.03 525.143C1307.11 526.702 1306.44 528.441 1306.02 530.362C1305.63 532.255 1305.44 534.189 1305.44 536.165V537.919C1305.44 539.895 1305.63 541.843 1306.02 543.764C1306.41 545.684 1307.07 547.424 1307.99 548.983C1308.93 550.541 1310.2 551.794 1311.78 552.74C1313.4 553.659 1315.4 554.118 1317.8 554.118ZM1352.24 495.5V559.629H1344.48V495.5H1352.24ZM1379.84 514.455L1360.13 535.539L1349.11 546.979L1348.48 538.754L1356.37 529.318L1370.4 514.455H1379.84ZM1372.78 559.629L1356.67 538.086L1360.67 531.197L1381.88 559.629H1372.78Z" fill="white"/>
</g>
<defs>
<filter id="filter0_d_870_36" x="0.541069" y="0.032855" width="1452.58" height="714.217" filterUnits="userSpaceOnUse" color-interpolation-filters="sRGB">
<feFlood flood-opacity="0" result="BackgroundImageFix"/>
<feColorMatrix in="SourceAlpha" type="matrix" values="0 0 0 0 0 0 0 0 0 0 0 0 0 0 0 0 0 0 127 0" result="hardAlpha"/>
<feOffset dy="6.49179"/>
<feGaussianBlur stdDeviation="16.2295"/>
<feComposite in2="hardAlpha" operator="out"/>
<feColorMatrix type="matrix" values="0 0 0 0 0 0 0 0 0 0 0 0 0 0 0 0 0 0 0.25 0"/>
<feBlend mode="normal" in2="BackgroundImageFix" result="effect1_dropShadow_870_36"/>
<feBlend mode="normal" in="SourceGraphic" in2="effect1_dropShadow_870_36" result="shape"/>
</filter>
</defs>
</svg>
