<svg width="75" height="35" viewBox="0 0 75 35" fill="none" xmlns="http://www.w3.org/2000/svg">
<path fill-rule="evenodd" clip-rule="evenodd" d="M18.8488 1.60547H0V4.39788H0.000160217V10.9602H0V13.7526H0.000160217V17.1034H3.21144V13.7526H18.8488V10.9602H3.21144V4.39788H18.8488V1.60547ZM0 20.4544H18.8488V23.2468H0V20.4544Z" fill="#018636"/>
<rect x="48.4482" y="1.60547" width="21.6412" height="3.21128" transform="rotate(90 48.4482 1.60547)" fill="#018636"/>
<path d="M72.1262 15.8353C72.9812 16.17 73.388 17.161 72.8902 17.9324C71.724 19.7393 70.0517 21.2327 68.0372 22.2446C65.4951 23.5216 62.5602 23.9556 59.7167 23.475C56.8732 22.9945 54.2912 21.6281 52.3967 19.6014C50.5022 17.5746 49.4084 15.0087 49.2959 12.3269C49.1834 9.64524 50.0589 7.00806 51.778 4.85063C53.497 2.69319 55.9567 1.14445 58.7514 0.459981C61.546 -0.224484 64.5084 -0.00376039 67.1497 1.08573C69.2441 1.94963 71.0374 3.31883 72.3516 5.03757C72.9095 5.76722 72.5808 6.78808 71.7526 7.18535C70.9923 7.55008 70.09 7.24818 69.5599 6.59242C68.5963 5.4004 67.3162 4.44878 65.8334 3.83718C63.8662 3.02572 61.6597 2.86133 59.5783 3.37112C57.4968 3.88092 55.6647 5.03444 54.3844 6.64132C53.1041 8.24821 52.452 10.2124 52.5358 12.2098C52.6195 14.2071 53.4342 16.1183 54.8452 17.6278C56.2563 19.1374 58.1794 20.1551 60.2973 20.513C62.4151 20.8709 64.6011 20.5477 66.4945 19.5966C67.9134 18.8838 69.1045 17.8503 69.9642 16.6019C70.4473 15.9004 71.3331 15.5249 72.1262 15.8353Z" fill="#018636"/>
<path fill-rule="evenodd" clip-rule="evenodd" d="M20.6633 15.2885L20.6631 15.2885V34.2769H23.5951V20.9588C24.7263 21.8276 26.0186 22.5136 27.4195 22.9783C30.0497 23.8507 32.9163 23.8939 35.5757 23.1014C38.2351 22.3089 40.5392 20.7248 42.1315 18.594C43.7239 16.4633 44.5158 13.9047 44.3847 11.3141C44.2536 8.72341 43.2069 6.24505 41.4064 4.26235C39.6059 2.27965 37.152 0.90309 34.4243 0.345613C31.6965 -0.211865 28.847 0.0808034 26.3164 1.17835C24.3278 2.04081 22.6233 3.36253 21.3582 5.0053C20.7978 5.73301 21.123 6.755 21.9499 7.15494C22.7087 7.52196 23.6115 7.22327 24.1436 6.56955C25.069 5.43257 26.2836 4.51549 27.6885 3.90617C29.5733 3.08871 31.6957 2.87073 33.7273 3.28594C35.759 3.70116 37.5866 4.72643 38.9277 6.20317C40.2687 7.67991 41.0483 9.52582 41.146 11.4554C41.2436 13.3849 40.6538 15.2906 39.4678 16.8776C38.2818 18.4646 36.5657 19.6444 34.5849 20.2347C32.6042 20.825 30.4691 20.7928 28.5101 20.143C27.07 19.6654 25.784 18.8736 24.755 17.8434C24.4701 17.5199 24.1459 17.0972 23.8745 16.6149C23.3719 15.7213 21.5243 15.3583 20.6633 15.2885L20.6633 15.2885Z" fill="#018636"/>
<path fill-rule="evenodd" clip-rule="evenodd" d="M34.9557 12.1237C35.1028 11.7889 35.1845 11.4189 35.1845 11.0297C35.1845 10.9859 35.1834 10.9422 35.1814 10.8988C35.1835 10.8491 35.1845 10.7997 35.1845 10.7506C35.1845 10.5155 35.1355 10.3239 35.046 10.1703C34.6862 9.08778 33.6652 8.30713 32.4619 8.30713C31.0547 8.30713 29.8969 9.37463 29.7541 10.744C29.7491 10.7462 29.7442 10.7484 29.7393 10.7506C29.7412 10.7783 29.7434 10.8071 29.746 10.8369C29.7415 10.9006 29.7393 10.9649 29.7393 11.0297C29.7393 11.46 29.8391 11.8669 30.0168 12.2287C30.3642 13.4492 31.084 15.032 32.4619 16.3354C33.1894 15.5352 34.4429 13.8024 34.9557 12.1237Z" fill="#018636"/>
<path d="M26.7051 27.6757V28.021H25.0093V27.6757H26.7051ZM25.0951 24.8185V28.021H24.6705V24.8185H25.0951ZM26.4808 26.1954V26.5407H25.0093V26.1954H26.4808ZM26.6831 24.8185V25.166H25.0093V24.8185H26.6831ZM27.8357 27.6537L28.4867 25.6411H28.9024L28.0468 28.021H27.7741L27.8357 27.6537ZM27.2924 25.6411L27.9632 27.6647L28.0094 28.021H27.7367L26.8745 25.6411H27.2924ZM30.2508 28.065C30.0851 28.065 29.9348 28.0371 29.7999 27.9814C29.6664 27.9242 29.5513 27.8443 29.4545 27.7417C29.3592 27.639 29.2859 27.5173 29.2346 27.3765C29.1833 27.2358 29.1576 27.0818 29.1576 26.9146V26.8223C29.1576 26.6287 29.1862 26.4564 29.2434 26.3054C29.3006 26.1529 29.3783 26.0238 29.4765 25.9182C29.5748 25.8127 29.6862 25.7328 29.8109 25.6785C29.9355 25.6242 30.0645 25.5971 30.198 25.5971C30.3681 25.5971 30.5147 25.6264 30.6379 25.6851C30.7625 25.7437 30.8644 25.8259 30.9436 25.9314C31.0228 26.0356 31.0814 26.1587 31.1196 26.301C31.1577 26.4417 31.1768 26.5957 31.1768 26.7629V26.9454H29.3995V26.6133H30.7698V26.5825C30.764 26.4769 30.742 26.3743 30.7039 26.2746C30.6672 26.1749 30.6085 26.0927 30.5279 26.0282C30.4472 25.9637 30.3373 25.9314 30.198 25.9314C30.1056 25.9314 30.0205 25.9512 29.9428 25.9908C29.8651 26.029 29.7984 26.0861 29.7427 26.1624C29.6869 26.2386 29.6437 26.3318 29.6129 26.4417C29.5821 26.5517 29.5667 26.6785 29.5667 26.8223V26.9146C29.5667 27.0275 29.5821 27.1339 29.6129 27.2336C29.6452 27.3318 29.6913 27.4183 29.7515 27.4931C29.8131 27.5679 29.8871 27.6265 29.9736 27.6691C30.0616 27.7116 30.1613 27.7329 30.2728 27.7329C30.4165 27.7329 30.5382 27.7035 30.6379 27.6449C30.7376 27.5862 30.8248 27.5078 30.8996 27.4095L31.146 27.6053C31.0946 27.683 31.0294 27.7571 30.9502 27.8274C30.871 27.8978 30.7735 27.955 30.6577 27.999C30.5433 28.043 30.4077 28.065 30.2508 28.065ZM32.0588 26.015V28.021H31.6519V25.6411H32.0478L32.0588 26.015ZM32.8022 25.6279L32.8 26.0062C32.7663 25.9989 32.734 25.9945 32.7032 25.993C32.6739 25.9901 32.6402 25.9886 32.6021 25.9886C32.5082 25.9886 32.4254 26.0033 32.3535 26.0326C32.2817 26.0619 32.2208 26.103 32.1709 26.1558C32.1211 26.2086 32.0815 26.2716 32.0522 26.345C32.0243 26.4168 32.006 26.496 31.9972 26.5825L31.8828 26.6485C31.8828 26.5048 31.8967 26.3699 31.9246 26.2438C31.9539 26.1177 31.9986 26.0062 32.0588 25.9094C32.1189 25.8112 32.1951 25.735 32.2875 25.6807C32.3814 25.625 32.4928 25.5971 32.6218 25.5971C32.6512 25.5971 32.6849 25.6008 32.723 25.6081C32.7612 25.614 32.7875 25.6206 32.8022 25.6279ZM33.8866 27.7746L34.5486 25.6411H34.9841L34.0295 28.3883C34.0076 28.447 33.9782 28.51 33.9416 28.5775C33.9064 28.6464 33.8609 28.7116 33.8052 28.7732C33.7495 28.8348 33.682 28.8847 33.6028 28.9228C33.5251 28.9624 33.432 28.9822 33.3235 28.9822C33.2912 28.9822 33.2502 28.9778 33.2003 28.969C33.1505 28.9602 33.1153 28.9529 33.0947 28.947L33.0925 28.6171C33.1043 28.6185 33.1226 28.62 33.1475 28.6215C33.1739 28.6244 33.1923 28.6259 33.2025 28.6259C33.2949 28.6259 33.3734 28.6134 33.4379 28.5885C33.5024 28.565 33.5567 28.5247 33.6006 28.4675C33.6461 28.4118 33.685 28.3348 33.7172 28.2366L33.8866 27.7746ZM33.4005 25.6411L34.0186 27.4887L34.1241 27.9176L33.8316 28.0672L32.9562 25.6411H33.4005ZM37.7116 26.7651H36.8559V26.4197H37.7116C37.8773 26.4197 38.0114 26.3933 38.1141 26.3406C38.2167 26.2878 38.2915 26.2144 38.3384 26.1206C38.3868 26.0268 38.411 25.9197 38.411 25.7995C38.411 25.6895 38.3868 25.5861 38.3384 25.4893C38.2915 25.3926 38.2167 25.3148 38.1141 25.2562C38.0114 25.1961 37.8773 25.166 37.7116 25.166H36.9549V28.021H36.5304V24.8185H37.7116C37.9535 24.8185 38.1581 24.8603 38.3252 24.9439C38.4924 25.0274 38.6192 25.1433 38.7058 25.2914C38.7923 25.438 38.8355 25.6059 38.8355 25.7951C38.8355 26.0004 38.7923 26.1756 38.7058 26.3208C38.6192 26.4659 38.4924 26.5766 38.3252 26.6529C38.1581 26.7277 37.9535 26.7651 37.7116 26.7651ZM39.7175 26.015V28.021H39.3106V25.6411H39.7065L39.7175 26.015ZM40.461 25.6279L40.4588 26.0062C40.425 25.9989 40.3928 25.9945 40.362 25.993C40.3327 25.9901 40.2989 25.9886 40.2608 25.9886C40.167 25.9886 40.0841 26.0033 40.0123 26.0326C39.9404 26.0619 39.8796 26.103 39.8297 26.1558C39.7799 26.2086 39.7403 26.2716 39.7109 26.345C39.6831 26.4168 39.6647 26.496 39.6559 26.5825L39.5416 26.6485C39.5416 26.5048 39.5555 26.3699 39.5834 26.2438C39.6127 26.1177 39.6574 26.0062 39.7175 25.9094C39.7777 25.8112 39.8539 25.735 39.9463 25.6807C40.0401 25.625 40.1516 25.5971 40.2806 25.5971C40.3099 25.5971 40.3437 25.6008 40.3818 25.6081C40.4199 25.614 40.4463 25.6206 40.461 25.6279ZM40.6853 26.8574V26.8069C40.6853 26.6353 40.7103 26.4762 40.7601 26.3296C40.81 26.1815 40.8818 26.0531 40.9757 25.9446C41.0695 25.8347 41.1832 25.7496 41.3166 25.6895C41.45 25.6279 41.5996 25.5971 41.7653 25.5971C41.9325 25.5971 42.0828 25.6279 42.2162 25.6895C42.3511 25.7496 42.4655 25.8347 42.5593 25.9446C42.6546 26.0531 42.7272 26.1815 42.7771 26.3296C42.8269 26.4762 42.8519 26.6353 42.8519 26.8069V26.8574C42.8519 27.029 42.8269 27.1881 42.7771 27.3347C42.7272 27.4814 42.6546 27.6097 42.5593 27.7197C42.4655 27.8282 42.3518 27.9132 42.2184 27.9748C42.0864 28.0349 41.9369 28.065 41.7697 28.065C41.6025 28.065 41.4522 28.0349 41.3188 27.9748C41.1854 27.9132 41.071 27.8282 40.9757 27.7197C40.8818 27.6097 40.81 27.4814 40.7601 27.3347C40.7103 27.1881 40.6853 27.029 40.6853 26.8574ZM41.0922 26.8069V26.8574C41.0922 26.9762 41.1062 27.0884 41.134 27.194C41.1619 27.2981 41.2037 27.3905 41.2594 27.4711C41.3166 27.5518 41.3877 27.6155 41.4728 27.6625C41.5578 27.7079 41.6568 27.7307 41.7697 27.7307C41.8811 27.7307 41.9787 27.7079 42.0622 27.6625C42.1473 27.6155 42.2177 27.5518 42.2734 27.4711C42.3291 27.3905 42.3709 27.2981 42.3988 27.194C42.4281 27.0884 42.4428 26.9762 42.4428 26.8574V26.8069C42.4428 26.6895 42.4281 26.5788 42.3988 26.4747C42.3709 26.3691 42.3284 26.276 42.2712 26.1954C42.2155 26.1133 42.1451 26.0488 42.06 26.0018C41.9765 25.9549 41.8782 25.9314 41.7653 25.9314C41.6539 25.9314 41.5556 25.9549 41.4706 26.0018C41.387 26.0488 41.3166 26.1133 41.2594 26.1954C41.2037 26.276 41.1619 26.3691 41.134 26.4747C41.1062 26.5788 41.0922 26.6895 41.0922 26.8069ZM44.8622 27.5591V24.6425H45.2713V28.021H44.8974L44.8622 27.5591ZM43.261 26.8574V26.8113C43.261 26.6294 43.283 26.4645 43.327 26.3164C43.3724 26.1668 43.4362 26.0385 43.5183 25.9314C43.6019 25.8244 43.7009 25.7423 43.8153 25.6851C43.9311 25.6264 44.0601 25.5971 44.2024 25.5971C44.3519 25.5971 44.4824 25.6235 44.5939 25.6763C44.7068 25.7276 44.8021 25.8031 44.8798 25.9028C44.959 26.0011 45.0213 26.1199 45.0668 26.2592C45.1122 26.3985 45.1438 26.5561 45.1614 26.7321V26.9344C45.1452 27.1089 45.1137 27.2658 45.0668 27.4051C45.0213 27.5444 44.959 27.6632 44.8798 27.7615C44.8021 27.8597 44.7068 27.9352 44.5939 27.988C44.481 28.0393 44.349 28.065 44.198 28.065C44.0587 28.065 43.9311 28.0349 43.8153 27.9748C43.7009 27.9147 43.6019 27.8304 43.5183 27.7219C43.4362 27.6133 43.3724 27.4858 43.327 27.3391C43.283 27.191 43.261 27.0305 43.261 26.8574ZM43.6701 26.8113V26.8574C43.6701 26.9762 43.6818 27.0877 43.7053 27.1918C43.7302 27.2959 43.7683 27.3875 43.8197 27.4667C43.871 27.5459 43.9362 27.6082 44.0154 27.6537C44.0946 27.6977 44.1892 27.7197 44.2992 27.7197C44.4341 27.7197 44.5448 27.6911 44.6313 27.6339C44.7193 27.5767 44.7896 27.5012 44.8424 27.4073C44.8952 27.3135 44.9363 27.2116 44.9656 27.1016V26.5715C44.948 26.4909 44.9224 26.4131 44.8886 26.3384C44.8564 26.2621 44.8138 26.1947 44.7611 26.136C44.7097 26.0759 44.6459 26.0282 44.5697 25.993C44.4949 25.9578 44.4062 25.9402 44.3036 25.9402C44.1921 25.9402 44.0961 25.9637 44.0154 26.0106C43.9362 26.0561 43.871 26.1191 43.8197 26.1998C43.7683 26.279 43.7302 26.3713 43.7053 26.4769C43.6818 26.581 43.6701 26.6925 43.6701 26.8113ZM47.3609 27.4711V25.6411H47.77V28.021H47.3807L47.3609 27.4711ZM47.4379 26.9696L47.6072 26.9652C47.6072 27.1236 47.5904 27.2702 47.5567 27.4051C47.5244 27.5386 47.4716 27.6544 47.3983 27.7527C47.325 27.8509 47.2289 27.9279 47.1102 27.9836C46.9914 28.0379 46.8469 28.065 46.6768 28.065C46.561 28.065 46.4547 28.0481 46.3579 28.0144C46.2626 27.9807 46.1805 27.9286 46.1116 27.8582C46.0426 27.7878 45.9891 27.6962 45.951 27.5833C45.9143 27.4704 45.896 27.3347 45.896 27.1764V25.6411H46.3029V27.1808C46.3029 27.2878 46.3147 27.3765 46.3381 27.4469C46.363 27.5158 46.396 27.5708 46.4371 27.6119C46.4796 27.6515 46.5265 27.6793 46.5779 27.6955C46.6307 27.7116 46.6849 27.7197 46.7406 27.7197C46.9137 27.7197 47.0508 27.6867 47.1519 27.6207C47.2531 27.5532 47.3257 27.463 47.3697 27.3501C47.4152 27.2358 47.4379 27.1089 47.4379 26.9696ZM49.3427 27.7307C49.4395 27.7307 49.5289 27.7109 49.611 27.6713C49.6931 27.6317 49.7606 27.5774 49.8134 27.5085C49.8662 27.4381 49.8962 27.3582 49.9036 27.2688H50.2907C50.2833 27.4095 50.2357 27.5408 50.1477 27.6625C50.0612 27.7827 49.9475 27.8802 49.8068 27.955C49.666 28.0283 49.5113 28.065 49.3427 28.065C49.1638 28.065 49.0076 28.0335 48.8742 27.9704C48.7422 27.9074 48.6322 27.8208 48.5442 27.7109C48.4577 27.6009 48.3925 27.4748 48.3485 27.3325C48.306 27.1888 48.2847 27.0371 48.2847 26.8772V26.7849C48.2847 26.625 48.306 26.474 48.3485 26.3318C48.3925 26.1881 48.4577 26.0612 48.5442 25.9512C48.6322 25.8413 48.7422 25.7547 48.8742 25.6917C49.0076 25.6286 49.1638 25.5971 49.3427 25.5971C49.5289 25.5971 49.6917 25.6352 49.831 25.7115C49.9703 25.7863 50.0795 25.8889 50.1587 26.0194C50.2394 26.1485 50.2833 26.2951 50.2907 26.4593H49.9036C49.8962 26.3611 49.8684 26.2724 49.82 26.1932C49.7731 26.114 49.7085 26.051 49.6264 26.004C49.5458 25.9556 49.4512 25.9314 49.3427 25.9314C49.218 25.9314 49.1132 25.9564 49.0281 26.0062C48.9446 26.0546 48.8778 26.1206 48.828 26.2042C48.7796 26.2863 48.7444 26.3779 48.7224 26.4791C48.7019 26.5788 48.6916 26.6807 48.6916 26.7849V26.8772C48.6916 26.9814 48.7019 27.084 48.7224 27.1852C48.7429 27.2864 48.7774 27.378 48.8258 27.4601C48.8756 27.5422 48.9424 27.6082 49.0259 27.6581C49.111 27.7065 49.2166 27.7307 49.3427 27.7307ZM51.7446 25.6411V25.9534H50.4578V25.6411H51.7446ZM50.8933 25.0626H51.3003V27.4315C51.3003 27.5122 51.3127 27.573 51.3377 27.6141C51.3626 27.6551 51.3948 27.6823 51.4344 27.6955C51.474 27.7087 51.5165 27.7153 51.562 27.7153C51.5957 27.7153 51.6309 27.7123 51.6676 27.7065C51.7057 27.6991 51.7343 27.6933 51.7534 27.6889L51.7556 28.021C51.7233 28.0313 51.6808 28.0408 51.628 28.0496C51.5767 28.0599 51.5143 28.065 51.441 28.065C51.3413 28.065 51.2497 28.0452 51.1661 28.0056C51.0825 27.966 51.0158 27.9 50.9659 27.8076C50.9175 27.7138 50.8933 27.5877 50.8933 27.4293V25.0626ZM53.7813 25.6411V28.021H53.3722V25.6411H53.7813ZM53.3414 25.0098C53.3414 24.9439 53.3612 24.8881 53.4008 24.8427C53.4419 24.7972 53.502 24.7745 53.5812 24.7745C53.6589 24.7745 53.7183 24.7972 53.7593 24.8427C53.8019 24.8881 53.8231 24.9439 53.8231 25.0098C53.8231 25.0729 53.8019 25.1271 53.7593 25.1726C53.7183 25.2166 53.6589 25.2386 53.5812 25.2386C53.502 25.2386 53.4419 25.2166 53.4008 25.1726C53.3612 25.1271 53.3414 25.0729 53.3414 25.0098ZM54.8415 26.1492V28.021H54.4346V25.6411H54.8195L54.8415 26.1492ZM54.7447 26.7409L54.5754 26.7343C54.5768 26.5715 54.601 26.4212 54.6479 26.2834C54.6949 26.1441 54.7609 26.0231 54.8459 25.9204C54.931 25.8178 55.0321 25.7386 55.1494 25.6829C55.2682 25.6257 55.3995 25.5971 55.5432 25.5971C55.6605 25.5971 55.766 25.6132 55.8599 25.6455C55.9537 25.6763 56.0336 25.7262 56.0996 25.7951C56.1671 25.864 56.2184 25.9534 56.2536 26.0634C56.2888 26.1719 56.3064 26.3046 56.3064 26.4615V28.021H55.8973V26.4571C55.8973 26.3325 55.8789 26.2328 55.8423 26.158C55.8056 26.0817 55.7521 26.0268 55.6817 25.993C55.6113 25.9578 55.5248 25.9402 55.4222 25.9402C55.321 25.9402 55.2286 25.9615 55.145 26.004C55.0629 26.0466 54.9918 26.1052 54.9317 26.18C54.873 26.2548 54.8268 26.3406 54.7931 26.4373C54.7609 26.5326 54.7447 26.6338 54.7447 26.7409ZM59.4451 27.6141V26.3889C59.4451 26.2951 59.4261 26.2137 59.3879 26.1448C59.3513 26.0744 59.2956 26.0202 59.2208 25.982C59.146 25.9439 59.0536 25.9248 58.9436 25.9248C58.841 25.9248 58.7508 25.9424 58.6731 25.9776C58.5968 26.0128 58.5367 26.059 58.4927 26.1162C58.4502 26.1734 58.4289 26.235 58.4289 26.301H58.022C58.022 26.2159 58.044 26.1316 58.088 26.048C58.132 25.9644 58.1951 25.8889 58.2772 25.8215C58.3608 25.7525 58.4605 25.6983 58.5763 25.6587C58.6936 25.6176 58.8241 25.5971 58.9678 25.5971C59.1409 25.5971 59.2934 25.6264 59.4253 25.6851C59.5588 25.7437 59.6629 25.8325 59.7377 25.9512C59.8139 26.0685 59.852 26.2159 59.852 26.3933V27.5019C59.852 27.5811 59.8586 27.6654 59.8718 27.7549C59.8865 27.8443 59.9078 27.9213 59.9356 27.9858V28.021H59.5111C59.4906 27.9741 59.4744 27.9118 59.4627 27.834C59.451 27.7549 59.4451 27.6815 59.4451 27.6141ZM59.5155 26.5781L59.5199 26.864H59.1086C58.9927 26.864 58.8894 26.8736 58.7985 26.8926C58.7075 26.9102 58.6313 26.9374 58.5697 26.974C58.5081 27.0107 58.4612 27.0569 58.4289 27.1126C58.3967 27.1668 58.3805 27.2306 58.3805 27.3039C58.3805 27.3787 58.3974 27.4469 58.4311 27.5085C58.4649 27.5701 58.5155 27.6192 58.5829 27.6559C58.6518 27.6911 58.7361 27.7087 58.8358 27.7087C58.9605 27.7087 59.0705 27.6823 59.1658 27.6295C59.2611 27.5767 59.3366 27.5122 59.3923 27.4359C59.4495 27.3597 59.4803 27.2856 59.4847 27.2138L59.6585 27.4095C59.6482 27.4711 59.6203 27.5393 59.5749 27.6141C59.5294 27.6889 59.4686 27.7607 59.3923 27.8296C59.3175 27.8971 59.2281 27.9535 59.124 27.999C59.0213 28.043 58.9055 28.065 58.7765 28.065C58.6152 28.065 58.4737 28.0335 58.352 27.9704C58.2317 27.9074 58.1379 27.823 58.0704 27.7175C58.0044 27.6104 57.9714 27.4909 57.9714 27.3589C57.9714 27.2314 57.9964 27.1192 58.0462 27.0224C58.0961 26.9242 58.1679 26.8428 58.2618 26.7783C58.3556 26.7123 58.4685 26.6624 58.6005 26.6287C58.7325 26.595 58.8798 26.5781 59.0426 26.5781H59.5155ZM63.6044 27.0026H64.0267C64.0047 27.205 63.9468 27.3861 63.853 27.5459C63.7591 27.7057 63.6264 27.8326 63.4549 27.9264C63.2833 28.0188 63.0692 28.065 62.8126 28.065C62.6249 28.065 62.4541 28.0298 62.3001 27.9594C62.1476 27.889 62.0164 27.7893 61.9064 27.6603C61.7964 27.5298 61.7114 27.3736 61.6512 27.1918C61.5926 27.0085 61.5633 26.8047 61.5633 26.5803V26.2614C61.5633 26.037 61.5926 25.8339 61.6512 25.6521C61.7114 25.4688 61.7972 25.3119 61.9086 25.1814C62.0215 25.0509 62.1571 24.9505 62.3155 24.8801C62.4739 24.8097 62.652 24.7745 62.85 24.7745C63.0919 24.7745 63.2965 24.8199 63.4637 24.9109C63.6308 25.0018 63.7606 25.1279 63.853 25.2892C63.9468 25.449 64.0047 25.6345 64.0267 25.8457H63.6044C63.5839 25.6961 63.5458 25.5678 63.4901 25.4607C63.4343 25.3522 63.3552 25.2687 63.2525 25.21C63.1499 25.1513 63.0157 25.122 62.85 25.122C62.7078 25.122 62.5824 25.1491 62.4739 25.2034C62.3668 25.2577 62.2766 25.3346 62.2033 25.4343C62.1315 25.5341 62.0772 25.6536 62.0406 25.7929C62.0039 25.9322 61.9856 26.0869 61.9856 26.257V26.5803C61.9856 26.7372 62.0017 26.8846 62.034 27.0224C62.0677 27.1602 62.1183 27.2812 62.1857 27.3853C62.2532 27.4894 62.339 27.5716 62.4431 27.6317C62.5472 27.6903 62.6704 27.7197 62.8126 27.7197C62.993 27.7197 63.1367 27.6911 63.2437 27.6339C63.3508 27.5767 63.4314 27.4946 63.4857 27.3875C63.5414 27.2805 63.581 27.1522 63.6044 27.0026ZM64.9857 24.6425V28.021H64.5766V24.6425H64.9857ZM66.0811 25.6411V28.021H65.672V25.6411H66.0811ZM65.6412 25.0098C65.6412 24.9439 65.661 24.8881 65.7006 24.8427C65.7416 24.7972 65.8018 24.7745 65.8809 24.7745C65.9587 24.7745 66.0181 24.7972 66.0591 24.8427C66.1016 24.8881 66.1229 24.9439 66.1229 25.0098C66.1229 25.0729 66.1016 25.1271 66.0591 25.1726C66.0181 25.2166 65.9587 25.2386 65.8809 25.2386C65.8018 25.2386 65.7416 25.2166 65.7006 25.1726C65.661 25.1271 65.6412 25.0729 65.6412 25.0098ZM67.6868 27.7307C67.7835 27.7307 67.873 27.7109 67.9551 27.6713C68.0372 27.6317 68.1047 27.5774 68.1575 27.5085C68.2102 27.4381 68.2403 27.3582 68.2476 27.2688H68.6348C68.6274 27.4095 68.5798 27.5408 68.4918 27.6625C68.4053 27.7827 68.2916 27.8802 68.1509 27.955C68.0101 28.0283 67.8554 28.065 67.6868 28.065C67.5079 28.065 67.3517 28.0335 67.2183 27.9704C67.0863 27.9074 66.9763 27.8208 66.8883 27.7109C66.8018 27.6009 66.7366 27.4748 66.6926 27.3325C66.65 27.1888 66.6288 27.0371 66.6288 26.8772V26.7849C66.6288 26.625 66.65 26.474 66.6926 26.3318C66.7366 26.1881 66.8018 26.0612 66.8883 25.9512C66.9763 25.8413 67.0863 25.7547 67.2183 25.6917C67.3517 25.6286 67.5079 25.5971 67.6868 25.5971C67.873 25.5971 68.0358 25.6352 68.1751 25.7115C68.3144 25.7863 68.4236 25.8889 68.5028 26.0194C68.5834 26.1485 68.6274 26.2951 68.6348 26.4593H68.2476C68.2403 26.3611 68.2124 26.2724 68.1641 26.1932C68.1171 26.114 68.0526 26.051 67.9705 26.004C67.8898 25.9556 67.7953 25.9314 67.6868 25.9314C67.5621 25.9314 67.4573 25.9564 67.3722 26.0062C67.2886 26.0546 67.2219 26.1206 67.1721 26.2042C67.1237 26.2863 67.0885 26.3779 67.0665 26.4791C67.046 26.5788 67.0357 26.6807 67.0357 26.7849V26.8772C67.0357 26.9814 67.046 27.084 67.0665 27.1852C67.087 27.2864 67.1215 27.378 67.1699 27.4601C67.2197 27.5422 67.2864 27.6082 67.37 27.6581C67.4551 27.7065 67.5607 27.7307 67.6868 27.7307ZM69.5014 24.6425V28.021H69.0923V24.6425H69.5014ZM70.9553 25.6411L69.9171 26.7519L69.3364 27.3545L69.3034 26.9212L69.7191 26.4241L70.4582 25.6411H70.9553ZM70.5835 28.021L69.7345 26.886L69.9457 26.5231L71.063 28.021H70.5835Z" fill="#018636"/>
</svg>
