<svg width="30" height="23" viewBox="0 0 30 23" fill="none" xmlns="http://www.w3.org/2000/svg">
<path d="M4.63752 20.5C4.66951 20.6314 4.72752 20.7551 4.80812 20.8638C4.88873 20.9725 4.99029 21.0639 5.10682 21.1326C5.22334 21.2014 5.35246 21.2461 5.48656 21.2641C5.62065 21.2821 5.75699 21.273 5.88752 21.2375C11.8463 19.5875 18.1413 19.5875 24.1 21.2375C24.2306 21.273 24.3669 21.2821 24.501 21.2641C24.6351 21.2461 24.7642 21.2014 24.8807 21.1326C24.9973 21.0639 25.0988 20.9725 25.1794 20.8638C25.26 20.7551 25.318 20.6314 25.35 20.5L28.5375 6.96246C28.5813 6.78126 28.5735 6.59143 28.5151 6.4144C28.4567 6.23738 28.35 6.0802 28.207 5.9606C28.064 5.84101 27.8905 5.76377 27.7059 5.73759C27.5213 5.71141 27.3331 5.73734 27.1625 5.81246L20.8375 8.62496C20.6083 8.72586 20.3499 8.73827 20.1121 8.65978C19.8743 8.58129 19.6741 8.41747 19.55 8.19996L15.875 1.57496C15.7885 1.41866 15.6618 1.28837 15.5079 1.19765C15.354 1.10693 15.1787 1.05908 15 1.05908C14.8214 1.05908 14.646 1.10693 14.4921 1.19765C14.3383 1.28837 14.2115 1.41866 14.125 1.57496L10.45 8.19996C10.326 8.41747 10.1257 8.58129 9.88791 8.65978C9.65013 8.73827 9.39169 8.72586 9.16252 8.62496L2.83752 5.81246C2.66691 5.73734 2.47871 5.71141 2.29414 5.73759C2.10958 5.76377 1.93601 5.84101 1.79302 5.9606C1.65002 6.0802 1.54331 6.23738 1.48491 6.4144C1.42651 6.59143 1.41876 6.78126 1.46252 6.96246L4.63752 20.5Z" stroke="#FF9D00" stroke-width="2" stroke-linecap="round" stroke-linejoin="round"/>
</svg>
